<?xml version="1.0" encoding="utf-8"?>
<!-- Generator: Adobe Illustrator 24.3.0, SVG Export Plug-In . SVG Version: 6.00 Build 0)  -->
<svg version="1.1" id="Layer_1" xmlns="http://www.w3.org/2000/svg" xmlns:xlink="http://www.w3.org/1999/xlink" x="0px" y="0px"
	 viewBox="0 0 680 680" style="enable-background:new 0 0 680 680;" xml:space="preserve">
<style type="text/css">
	.st0{clip-path:url(#SVGID_2_);fill-rule:evenodd;clip-rule:evenodd;}
	.st1{clip-path:url(#SVGID_4_);fill-rule:evenodd;clip-rule:evenodd;fill:#333333;}
	.st2{clip-path:url(#SVGID_6_);}
	.st3{fill:none;}
	.st4{clip-path:url(#SVGID_8_);}
	.st5{clip-path:url(#SVGID_12_);fill-rule:evenodd;clip-rule:evenodd;fill:#999999;}
	.st6{clip-path:url(#SVGID_14_);fill-rule:evenodd;clip-rule:evenodd;fill:#999999;}
	.st7{clip-path:url(#SVGID_16_);fill-rule:evenodd;clip-rule:evenodd;fill:#999999;}
	.st8{clip-path:url(#SVGID_18_);fill-rule:evenodd;clip-rule:evenodd;fill:#999999;}
	.st9{clip-path:url(#SVGID_20_);fill-rule:evenodd;clip-rule:evenodd;fill:#999999;}
	.st10{clip-path:url(#SVGID_22_);fill-rule:evenodd;clip-rule:evenodd;fill:#999999;}
	.st11{clip-path:url(#SVGID_24_);fill-rule:evenodd;clip-rule:evenodd;}
	.st12{clip-path:url(#SVGID_26_);fill-rule:evenodd;clip-rule:evenodd;fill:#808080;}
	.st13{clip-path:url(#SVGID_28_);}
	.st14{fill:none;stroke:#000000;stroke-width:2;stroke-miterlimit:10;}
	.st15{fill:none;stroke:#A70E13;stroke-width:2;stroke-miterlimit:10;}
</style>
<g id="Layer_1_1_">
	<g>
		<g>
			<g>
				<g>
					<defs>
						<path id="SVGID_1_" d="M4.7,340c0,183.7,150.1,332.6,335.3,332.6c185.2,0,335.3-148.9,335.3-332.6
							C675.3,156.3,525.2,7.4,340,7.4C154.8,7.4,4.7,156.3,4.7,340"/>
					</defs>
					<clipPath id="SVGID_2_">
						<use xlink:href="#SVGID_1_"  style="overflow:visible;"/>
					</clipPath>
					<path class="st0" d="M340,32.1C168.6,32.1,29.6,170,29.6,340c0,170,139,307.9,310.4,307.9c171.4,0,310.4-137.8,310.4-307.9
						C650.4,170,511.4,32.1,340,32.1z M338.5,595C197.5,595,83.2,480.8,83.2,339.8c0-140.9,114.3-255.2,255.2-255.2
						c141,0,255.2,114.3,255.2,255.2C593.7,480.8,479.4,595,338.5,595z"/>
				</g>
				<g>
					<defs>
						<path id="SVGID_3_" d="M4.7,340c0,183.7,150.1,332.6,335.3,332.6c185.2,0,335.3-148.9,335.3-332.6
							C675.3,156.3,525.2,7.4,340,7.4C154.8,7.4,4.7,156.3,4.7,340"/>
					</defs>
					<clipPath id="SVGID_4_">
						<use xlink:href="#SVGID_3_"  style="overflow:visible;"/>
					</clipPath>
					<path class="st1" d="M339.7,45.7C177.2,45.7,45.5,177.5,45.5,340s131.7,294.3,294.3,294.3C502.2,634.3,634,502.5,634,340
						S502.2,45.7,339.7,45.7z M338.5,595C197.5,595,83.2,480.8,83.2,339.8c0-140.9,114.3-255.2,255.2-255.2
						c141,0,255.2,114.3,255.2,255.2C593.7,480.8,479.4,595,338.5,595z"/>
				</g>
				<g>
					<defs>
						<path id="SVGID_5_" d="M4.7,340c0,183.7,150.1,332.6,335.3,332.6c185.2,0,335.3-148.9,335.3-332.6
							C675.3,156.3,525.2,7.4,340,7.4C154.8,7.4,4.7,156.3,4.7,340"/>
					</defs>
					<clipPath id="SVGID_6_">
						<use xlink:href="#SVGID_5_"  style="overflow:visible;"/>
					</clipPath>
					<g class="st2">
						<path class="st3" d="M647.4,339.5V32.3H339.7C509.5,32.3,647.2,169.8,647.4,339.5z"/>
						<path class="st3" d="M32,340C32,170.1,169.8,32.3,339.7,32.3H32v615.4h307.7C169.8,647.7,32,509.9,32,340z"/>
						<path class="st3" d="M339.7,647.7h307.7V340.5C647.2,510.2,509.5,647.7,339.7,647.7z"/>
					</g>
				</g>
				<g>
					<defs>
						<path id="SVGID_7_" d="M4.7,340c0,183.7,150.1,332.6,335.3,332.6c185.2,0,335.3-148.9,335.3-332.6
							C675.3,156.3,525.2,7.4,340,7.4C154.8,7.4,4.7,156.3,4.7,340"/>
					</defs>
					<clipPath id="SVGID_8_">
						<use xlink:href="#SVGID_7_"  style="overflow:visible;"/>
					</clipPath>
					<g class="st4">
						<g>
							<g>
								<defs>
									<rect id="SVGID_9_" x="32.3" y="32.6" width="614.8" height="614.9"/>
								</defs>
								<clipPath id="SVGID_10_">
									<use xlink:href="#SVGID_9_"  style="overflow:visible;"/>
								</clipPath>
							</g>
						</g>
					</g>
				</g>
				<g>
					<defs>
						<path id="SVGID_11_" d="M4.7,340c0,183.7,150.1,332.6,335.3,332.6c185.2,0,335.3-148.9,335.3-332.6
							C675.3,156.3,525.2,7.4,340,7.4C154.8,7.4,4.7,156.3,4.7,340"/>
					</defs>
					<clipPath id="SVGID_12_">
						<use xlink:href="#SVGID_11_"  style="overflow:visible;"/>
					</clipPath>
					<path class="st5" d="M339.7,55.4c157.2,0,284.6,127.4,284.6,284.6S496.9,624.6,339.7,624.6C182.6,624.6,55.2,497.2,55.2,340
						S182.6,55.4,339.7,55.4 M339.7,53.6c158.1,0,286.4,128.2,286.4,286.4c0,158.2-128.2,286.4-286.4,286.4
						C181.6,626.4,53.4,498.1,53.4,340S181.6,53.6,339.7,53.6"/>
				</g>
				<g>
					<defs>
						<path id="SVGID_13_" d="M4.7,340c0,183.7,150.1,332.6,335.3,332.6c185.2,0,335.3-148.9,335.3-332.6
							C675.3,156.3,525.2,7.4,340,7.4C154.8,7.4,4.7,156.3,4.7,340"/>
					</defs>
					<clipPath id="SVGID_14_">
						<use xlink:href="#SVGID_13_"  style="overflow:visible;"/>
					</clipPath>
					<path class="st6" d="M339.7,50.8c159.7,0,289.2,129.5,289.2,289.2c0,159.7-129.5,289.2-289.2,289.2
						C180,629.2,50.5,499.7,50.5,340C50.5,180.3,180,50.8,339.7,50.8 M339.7,49c160.7,0,291,130.3,291,291
						c0,160.7-130.3,291-291,291s-291-130.3-291-291C48.7,179.3,179,49,339.7,49"/>
				</g>
				<g>
					<defs>
						<path id="SVGID_15_" d="M4.7,340c0,183.7,150.1,332.6,335.3,332.6c185.2,0,335.3-148.9,335.3-332.6
							C675.3,156.3,525.2,7.4,340,7.4C154.8,7.4,4.7,156.3,4.7,340"/>
					</defs>
					<clipPath id="SVGID_16_">
						<use xlink:href="#SVGID_15_"  style="overflow:visible;"/>
					</clipPath>
					<path class="st7" d="M339.7,60c154.7,0,280,125.4,280,280s-125.4,280-280,280c-154.7,0-280-125.4-280-280S185.1,60,339.7,60
						 M339.7,58.2c155.6,0,281.8,126.2,281.8,281.8c0,155.6-126.2,281.8-281.8,281.8C184.1,621.8,57.9,495.6,57.9,340
						S184.1,58.2,339.7,58.2"/>
				</g>
				<g>
					<defs>
						<path id="SVGID_17_" d="M4.7,340c0,183.7,150.1,332.6,335.3,332.6c185.2,0,335.3-148.9,335.3-332.6
							C675.3,156.3,525.2,7.4,340,7.4C154.8,7.4,4.7,156.3,4.7,340"/>
					</defs>
					<clipPath id="SVGID_18_">
						<use xlink:href="#SVGID_17_"  style="overflow:visible;"/>
					</clipPath>
					<path class="st8" d="M339.7,67.9c150.3,0,272.1,121.8,272.1,272.1c0,150.3-121.8,272.1-272.1,272.1S67.6,490.3,67.6,340
						C67.6,189.7,189.4,67.9,339.7,67.9 M339.7,66.2c151.2,0,273.8,122.6,273.8,273.8c0,151.2-122.6,273.8-273.8,273.8
						C188.5,613.8,65.9,491.2,65.9,340C65.9,188.8,188.4,66.2,339.7,66.2"/>
				</g>
				<g>
					<defs>
						<path id="SVGID_19_" d="M4.7,340c0,183.7,150.1,332.6,335.3,332.6c185.2,0,335.3-148.9,335.3-332.6
							C675.3,156.3,525.2,7.4,340,7.4C154.8,7.4,4.7,156.3,4.7,340"/>
					</defs>
					<clipPath id="SVGID_20_">
						<use xlink:href="#SVGID_19_"  style="overflow:visible;"/>
					</clipPath>
					<path class="st9" d="M339.7,63.8c152.5,0,276.2,123.6,276.2,276.2c0,152.5-123.6,276.2-276.2,276.2S63.6,492.5,63.6,340
						C63.6,187.5,187.2,63.8,339.7,63.8 M339.7,62.1c153.5,0,277.9,124.4,277.9,277.9c0,153.5-124.4,277.9-277.9,277.9
						S61.8,493.5,61.8,340C61.8,186.5,186.3,62.1,339.7,62.1"/>
				</g>
				<g>
					<defs>
						<path id="SVGID_21_" d="M4.7,340c0,183.7,150.1,332.6,335.3,332.6c185.2,0,335.3-148.9,335.3-332.6
							C675.3,156.3,525.2,7.4,340,7.4C154.8,7.4,4.7,156.3,4.7,340"/>
					</defs>
					<clipPath id="SVGID_22_">
						<use xlink:href="#SVGID_21_"  style="overflow:visible;"/>
					</clipPath>
					<path class="st10" d="M339.7,72.3c147.9,0,267.7,119.9,267.7,267.7S487.5,607.7,339.7,607.7S71.9,487.9,71.9,340
						S191.8,72.3,339.7,72.3 M339.7,70.6c148.8,0,269.4,120.6,269.4,269.4S488.5,609.4,339.7,609.4S70.3,488.8,70.3,340
						S190.9,70.6,339.7,70.6"/>
				</g>
				<g>
					<defs>
						<path id="SVGID_23_" d="M4.7,340c0,183.7,150.1,332.6,335.3,332.6c185.2,0,335.3-148.9,335.3-332.6
							C675.3,156.3,525.2,7.4,340,7.4C154.8,7.4,4.7,156.3,4.7,340"/>
					</defs>
					<clipPath id="SVGID_24_">
						<use xlink:href="#SVGID_23_"  style="overflow:visible;"/>
					</clipPath>
					<path class="st11" d="M339.7,81.5C196.9,81.5,81.2,197.2,81.2,340c0,142.8,115.8,258.5,258.5,258.5S598.2,482.8,598.2,340
						C598.2,197.2,482.4,81.5,339.7,81.5z M338.5,595C197.5,595,83.2,480.8,83.2,339.8c0-140.9,114.3-255.2,255.2-255.2
						c141,0,255.2,114.3,255.2,255.2C593.7,480.8,479.4,595,338.5,595z"/>
				</g>
				<g>
					<defs>
						<path id="SVGID_25_" d="M4.7,340c0,183.7,150.1,332.6,335.3,332.6c185.2,0,335.3-148.9,335.3-332.6
							C675.3,156.3,525.2,7.4,340,7.4C154.8,7.4,4.7,156.3,4.7,340"/>
					</defs>
					<clipPath id="SVGID_26_">
						<use xlink:href="#SVGID_25_"  style="overflow:visible;"/>
					</clipPath>
					<path class="st12" d="M338.5,87.6c139.3,0,252.3,112.9,252.3,252.3S477.8,592.1,338.5,592.1S86.2,479.1,86.2,339.8
						S199.1,87.6,338.5,87.6 M338.5,79.9c143.5,0,259.9,116.4,259.9,259.9S482,599.7,338.5,599.7c-143.5,0-259.9-116.4-259.9-259.9
						C78.6,196.3,194.9,79.9,338.5,79.9"/>
				</g>
				<g>
					<defs>
						<path id="SVGID_27_" d="M4.7,340c0,183.7,150.1,332.6,335.3,332.6c185.2,0,335.3-148.9,335.3-332.6
							C675.3,156.3,525.2,7.4,340,7.4C154.8,7.4,4.7,156.3,4.7,340"/>
					</defs>
					<clipPath id="SVGID_28_">
						<use xlink:href="#SVGID_27_"  style="overflow:visible;"/>
					</clipPath>
					<g class="st13">
						<line class="st14" x1="339.6" y1="79.9" x2="341.9" y2="219.7"/>
						<line class="st15" x1="341.9" y1="219.7" x2="341.9" y2="532.3"/>
						<line class="st14" x1="341.9" y1="532.3" x2="341.9" y2="600.8"/>
						<line class="st15" x1="460.3" y1="333.1" x2="223.4" y2="333.1"/>
						<line class="st14" x1="78.7" y1="333.3" x2="223.4" y2="333.1"/>
						<line class="st14" x1="460.3" y1="333.1" x2="598.1" y2="333.3"/>
						<line class="st15" x1="324.4" y1="361.5" x2="359.3" y2="361.5"/>
						<line class="st15" x1="349.4" y1="345.9" x2="334.3" y2="345.9"/>
						<line class="st15" x1="324.4" y1="390" x2="359.3" y2="390"/>
						<line class="st15" x1="349.4" y1="374.4" x2="334.3" y2="374.4"/>
						<line class="st15" x1="324.4" y1="418.5" x2="359.3" y2="418.5"/>
						<line class="st15" x1="349.4" y1="402.8" x2="334.3" y2="402.8"/>
						<line class="st15" x1="324.4" y1="446.9" x2="359.3" y2="446.9"/>
						<line class="st15" x1="349.4" y1="431.3" x2="334.3" y2="431.3"/>
						<line class="st15" x1="324.4" y1="475.4" x2="359.3" y2="475.4"/>
						<line class="st15" x1="349.4" y1="459.8" x2="334.3" y2="459.8"/>
						<line class="st15" x1="324.4" y1="503.8" x2="359.3" y2="503.8"/>
						<line class="st15" x1="349.4" y1="488.2" x2="334.3" y2="488.2"/>
						<line class="st15" x1="324.4" y1="532.3" x2="359.3" y2="532.3"/>
						<line class="st15" x1="349.4" y1="516.7" x2="334.3" y2="516.7"/>
						<line class="st15" x1="324.4" y1="305.1" x2="359.3" y2="305.1"/>
						<line class="st15" x1="349.4" y1="320.7" x2="334.3" y2="320.7"/>
						<line class="st15" x1="324.4" y1="276.6" x2="359.3" y2="276.6"/>
						<line class="st15" x1="349.4" y1="292.2" x2="334.3" y2="292.2"/>
						<line class="st15" x1="324.4" y1="248.1" x2="359.3" y2="248.1"/>
						<line class="st15" x1="349.4" y1="263.8" x2="334.3" y2="263.8"/>
						<line class="st15" x1="324.4" y1="219.7" x2="359.3" y2="219.7"/>
						<line class="st15" x1="349.4" y1="235.3" x2="334.3" y2="235.3"/>
						<line class="st15" x1="374.9" y1="315.7" x2="374.9" y2="350.5"/>
						<line class="st15" x1="359.3" y1="340.6" x2="359.3" y2="325.5"/>
						<line class="st15" x1="403.4" y1="315.7" x2="403.4" y2="350.5"/>
						<line class="st15" x1="387.7" y1="340.6" x2="387.7" y2="325.5"/>
						<line class="st15" x1="431.8" y1="315.7" x2="431.8" y2="350.5"/>
						<line class="st15" x1="416.2" y1="340.6" x2="416.2" y2="325.5"/>
						<line class="st15" x1="460.3" y1="315.7" x2="460.3" y2="350.5"/>
						<line class="st15" x1="444.6" y1="340.6" x2="444.6" y2="325.5"/>
						<line class="st15" x1="308.8" y1="350.5" x2="308.8" y2="315.7"/>
						<line class="st15" x1="324.4" y1="325.5" x2="324.4" y2="340.6"/>
						<line class="st15" x1="280.4" y1="350.5" x2="280.4" y2="315.7"/>
						<line class="st15" x1="296" y1="325.5" x2="296" y2="340.6"/>
						<line class="st15" x1="251.9" y1="350.5" x2="251.9" y2="315.7"/>
						<line class="st15" x1="267.5" y1="325.5" x2="267.5" y2="340.6"/>
						<line class="st15" x1="223.4" y1="350.5" x2="223.4" y2="315.7"/>
						<line class="st15" x1="239.1" y1="325.5" x2="239.1" y2="340.6"/>
					</g>
				</g>
			</g>
		</g>
	</g>
</g>
<g id="Layer_2_1_">
</g>
</svg>
