<?xml version="1.0" encoding="utf-8"?>
<!-- Generator: Adobe Illustrator 24.3.0, SVG Export Plug-In . SVG Version: 6.00 Build 0)  -->
<svg version="1.1" id="Layer_1" xmlns="http://www.w3.org/2000/svg" xmlns:xlink="http://www.w3.org/1999/xlink" x="0px" y="0px"
	 viewBox="0 0 1850.3 1000" style="enable-background:new 0 0 1850.3 1000;" xml:space="preserve">
<style type="text/css">
	.st0{fill:#FFFFFF;}
	.st1{clip-path:url(#SVGID_2_);fill-rule:evenodd;clip-rule:evenodd;}
	.st2{clip-path:url(#SVGID_4_);fill-rule:evenodd;clip-rule:evenodd;fill:#333333;}
	.st3{clip-path:url(#SVGID_6_);}
	.st4{fill:none;}
	.st5{clip-path:url(#SVGID_8_);}
	.st6{clip-path:url(#SVGID_12_);fill-rule:evenodd;clip-rule:evenodd;fill:#999999;}
	.st7{clip-path:url(#SVGID_14_);fill-rule:evenodd;clip-rule:evenodd;fill:#999999;}
	.st8{clip-path:url(#SVGID_16_);fill-rule:evenodd;clip-rule:evenodd;fill:#999999;}
	.st9{clip-path:url(#SVGID_18_);fill-rule:evenodd;clip-rule:evenodd;fill:#999999;}
	.st10{clip-path:url(#SVGID_20_);fill-rule:evenodd;clip-rule:evenodd;fill:#999999;}
	.st11{clip-path:url(#SVGID_22_);fill-rule:evenodd;clip-rule:evenodd;fill:#999999;}
	.st12{clip-path:url(#SVGID_24_);fill-rule:evenodd;clip-rule:evenodd;}
	.st13{clip-path:url(#SVGID_26_);fill-rule:evenodd;clip-rule:evenodd;fill:#808080;}
	.st14{clip-path:url(#SVGID_28_);}
	.st15{fill:none;stroke:#000000;stroke-width:2;stroke-miterlimit:10;}
	.st16{fill:none;stroke:#A70E13;stroke-width:2;stroke-miterlimit:10;}
</style>
<g id="Layer_1_1_">
	<g>
		<g>
			<g>
				<path class="st0" d="M327.9,257.3V32.6h-24.7v-9h144.4c56.8,0,98.9,19.9,98.9,57.3c0,42-53.4,51.3-106.2,57.7v0.8
					c54.5,5.2,119.1,18,119.1,63.7c0,33-31.5,63.3-121.9,63.3H303.2v-9L327.9,257.3L327.9,257.3z M403.2,136.4h8.4
					c50.6,0,56.8-26.2,56.8-52.8c0-48.3-25.9-50.9-57.3-50.9h-7.9V136.4z M403.2,257.3h14c53.4,0,60.1-19.1,60.1-55.4
					c0-36-9.5-56.9-69.1-56.9h-5.1V257.3z"/>
				<path class="st0" d="M759.4,266.3H601.7V260h18.1V102.7h-18.1v-6.3h91.7v6.3h-20.8V260c34.2,0,43.7-1,56.6-8.1
					c11.4-6,18.9-21.8,23.2-42.7h9.4L759.4,266.3z"/>
				<path class="st0" d="M965.1,260v6.3h-85.3V260h18.5l-18.1-44.6H829L811.3,260h23.6v6.3h-53.5V260h18.5l68.4-163.6h15.3
					L950.5,260L965.1,260L965.1,260z M855.3,153.8h-0.8l-22.4,54.6h45.2L855.3,153.8z"/>
				<path class="st0" d="M1128.7,260c-13.4,6-29.1,9.7-45.2,9.7c-37.4,0-92-21.5-92-87.9c0-49.6,42.1-88.1,94.4-88.1
					c16.9,0,32.7,5.5,44.1,13.9l9.4-11.3h7.1v47.7h-7.9c-5.9-19.1-16.1-44.1-51.9-44.1c-33.4,0-34.2,27.8-34.6,44.3v76.1
					c0,29.9,13.4,43,39.3,43c25.6,0,44.4-21.5,48.8-44.8h8.3v49.3h-8.3L1128.7,260z"/>
				<path class="st0" d="M1183.7,266.3V260h19.3V102.7h-19.3v-6.3h96.8v6.3h-24.8V260h20.8v6.3L1183.7,266.3L1183.7,266.3z
					 M1346.2,102.7l-52.3,53.2l80.6,104.1h13.4v6.3h-90.1V260h22l-60.6-81.8l73.9-75.5h-22v-6.3h61v6.3L1346.2,102.7L1346.2,102.7z"
					/>
				<polygon class="st0" points="839.3,443.9 839.3,557 867.9,557 867.9,566 738.1,566 738.1,557 764,557 764,332.2 738.1,332.2 
					738.1,323.2 867.9,323.2 867.9,332.2 839.3,332.2 839.3,433.8 929.2,433.8 929.2,332.2 900.5,332.2 900.5,323.2 1030.3,323.2 
					1030.3,332.2 1004.4,332.2 1004.4,557 1030.3,557 1030.3,566 900.5,566 900.5,557 929.2,557 929.2,443.9 				"/>
				<polygon class="st0" points="1156,559.7 1156,566 1062.3,566 1062.3,559.7 1082.8,559.7 1082.8,402.4 1062.3,402.4 
					1062.3,396.1 1156,396.1 1156,402.4 1135.5,402.4 1135.5,559.7 				"/>
				<path class="st0" d="M1341.6,566h-157.7v-6.3h18.1V402.4h-18.1v-6.3h91.7v6.3h-20.8v157.3c34.2,0,43.7-1,56.6-8.1
					c11.4-6,18.9-21.8,23.2-42.8h9.4L1341.6,566z"/>
				<path class="st0" d="M1526.1,566h-157.7v-6.3h18.1V402.4h-18.1v-6.3h91.7v6.3h-20.8v157.3c34.2,0,43.7-1,56.6-8.1
					c11.4-6,18.9-21.8,23.2-42.8h9.4L1526.1,566z"/>
				<path class="st0" d="M1561,516.4c2.8,19.7,20.8,46.7,55.8,46.7c23.2,0,38.9-11,38.9-26.2c0-40.6-104.2-38.3-104.2-94.9
					c0-32.5,25.2-48.5,61.4-48.5c17.7,0,30.3,4.2,44.8,10.8l9.8-8.1h7.9v44.6h-8.7c-6.3-18.6-20.4-40.9-54.3-40.9
					c-23.2,0-37.4,7.9-37.4,23.6c0,34.1,109.3,32.8,109.3,95.7c0,18.9-17.7,50.3-68.8,50.3c-17.3,0-31.5-4.5-44.4-11.8l-13.4,8.4
					h-6.3v-49.6H1561z"/>
				<path class="st0" d="M1207,692.6c-13.5-40.1-36.5-63.7-75.8-63.7c-50.6,0-60.1,28.1-60.1,95.9v75.7
					c-0.6,38.2,12.4,61.1,42.1,61.1c33.1,0,41-14.6,41-45.7v-46.5h-25.8v-9H1252v9h-17.4v11.2c0,36.7-20.8,89.9-117.4,89.9
					c-109.6,0-129.2-84.7-129.2-116.1c0-112.4,87.7-135.2,132-135.2c32,0,49.4,6.7,74.2,19.9l12.9-15h15.2v68.5L1207,692.6
					L1207,692.6z"/>
				<path class="st0" d="M1423.2,865.6h-159.7v-6.3h17.3V702h-17.3v-6.3h155l2.4,43.3h-9c-13-30.2-27.9-37-60.6-37h-17.7v71.6
					c29.1,0,35.8-10.8,36.6-30.2h9.8V814h-8.7c-4.3-22.5-8.7-33.6-37.8-33.6v78.9h18.5c50.8,0,60.2-25.2,64.5-49h10.2L1423.2,865.6z
					"/>
				<path class="st0" d="M1624.5,859.3v6.3h-85.3v-6.3h18.5l-18.1-44.6h-51.1l-17.7,44.6h23.6v6.3h-53.5v-6.3h18.5l68.4-163.6h15.3
					l66.9,163.6H1624.5z M1514.8,753.2h-0.8l-22.4,54.5h45.2L1514.8,753.2z"/>
				<path class="st0" d="M1640.2,865.6v-6.3h15.8V702h-15.8v-6.3h92.8c52.3-0.3,85.8,14.2,85.8,36.7c0,17-13.4,38.8-86.1,42v0.5
					c50.8,8.4,73.2,23.6,73.2,56.6v13.1c0,13.1,6.3,14.4,13.8,14.4c2.8,0,4.3-0.3,6.3-0.5l2,5.8c-7.5,1.6-15.7,2.9-25.2,2.9
					c-38.2,0-51.5-17-51.5-35.1v-16.3c0-20.2-7.1-38-42.5-38.8v82.3h20.8v6.3L1640.2,865.6L1640.2,865.6z M1708.7,770.5
					c42.1,0.3,52.7-6.8,52.7-35.4c0-23.6-11-33-38.9-33h-13.8V770.5z"/>
			</g>
			<g>
				<g>
					<defs>
						<path id="SVGID_1_" d="M27.9,654.1c0,183.7,150.1,332.6,335.3,332.6c185.2,0,335.3-148.9,335.3-332.6
							c0-183.7-150.1-332.6-335.3-332.6C178,321.5,27.9,470.4,27.9,654.1"/>
					</defs>
					<clipPath id="SVGID_2_">
						<use xlink:href="#SVGID_1_"  style="overflow:visible;"/>
					</clipPath>
					<path class="st1" d="M363.2,346.2c-171.4,0-310.4,137.9-310.4,307.9c0,170,139,307.9,310.4,307.9
						c171.4,0,310.4-137.8,310.4-307.9C673.5,484,534.6,346.2,363.2,346.2z M361.6,909.1c-140.9,0-255.2-114.3-255.2-255.2
						c0-141,114.3-255.2,255.2-255.2c141,0,255.2,114.3,255.2,255.2C616.8,794.9,502.6,909.1,361.6,909.1z"/>
				</g>
				<g>
					<defs>
						<path id="SVGID_3_" d="M27.9,654.1c0,183.7,150.1,332.6,335.3,332.6c185.2,0,335.3-148.9,335.3-332.6
							c0-183.7-150.1-332.6-335.3-332.6C178,321.5,27.9,470.4,27.9,654.1"/>
					</defs>
					<clipPath id="SVGID_4_">
						<use xlink:href="#SVGID_3_"  style="overflow:visible;"/>
					</clipPath>
					<path class="st2" d="M362.9,359.8c-162.5,0-294.3,131.7-294.3,294.2c0,162.5,131.7,294.3,294.3,294.3
						c162.5,0,294.3-131.7,294.3-294.3C657.1,491.6,525.4,359.8,362.9,359.8z M361.6,909.1c-140.9,0-255.2-114.3-255.2-255.2
						c0-141,114.3-255.2,255.2-255.2c141,0,255.2,114.3,255.2,255.2C616.8,794.9,502.6,909.1,361.6,909.1z"/>
				</g>
				<g>
					<defs>
						<path id="SVGID_5_" d="M27.9,654.1c0,183.7,150.1,332.6,335.3,332.6c185.2,0,335.3-148.9,335.3-332.6
							c0-183.7-150.1-332.6-335.3-332.6C178,321.5,27.9,470.4,27.9,654.1"/>
					</defs>
					<clipPath id="SVGID_6_">
						<use xlink:href="#SVGID_5_"  style="overflow:visible;"/>
					</clipPath>
					<g class="st3">
						<path class="st4" d="M670.6,653.6V346.4H362.9C532.7,346.4,670.3,483.9,670.6,653.6z"/>
						<path class="st4" d="M55.2,654.1c0-169.9,137.8-307.7,307.7-307.7H55.2v615.4h307.7C193,961.8,55.2,824,55.2,654.1z"/>
						<path class="st4" d="M362.9,961.8h307.7V654.6C670.3,824.3,532.7,961.8,362.9,961.8z"/>
					</g>
				</g>
				<g>
					<defs>
						<path id="SVGID_7_" d="M27.9,654.1c0,183.7,150.1,332.6,335.3,332.6c185.2,0,335.3-148.9,335.3-332.6
							c0-183.7-150.1-332.6-335.3-332.6C178,321.5,27.9,470.4,27.9,654.1"/>
					</defs>
					<clipPath id="SVGID_8_">
						<use xlink:href="#SVGID_7_"  style="overflow:visible;"/>
					</clipPath>
					<g class="st5">
						<g>
							<g>
								<defs>
									<rect id="SVGID_9_" x="55.5" y="346.7" width="614.8" height="614.9"/>
								</defs>
								<clipPath id="SVGID_10_">
									<use xlink:href="#SVGID_9_"  style="overflow:visible;"/>
								</clipPath>
							</g>
						</g>
					</g>
				</g>
				<g>
					<defs>
						<path id="SVGID_11_" d="M27.9,654.1c0,183.7,150.1,332.6,335.3,332.6c185.2,0,335.3-148.9,335.3-332.6
							c0-183.7-150.1-332.6-335.3-332.6C178,321.5,27.9,470.4,27.9,654.1"/>
					</defs>
					<clipPath id="SVGID_12_">
						<use xlink:href="#SVGID_11_"  style="overflow:visible;"/>
					</clipPath>
					<path class="st6" d="M362.9,369.5c157.2,0,284.6,127.4,284.6,284.6S520.1,938.7,362.9,938.7S78.3,811.3,78.3,654.1
						C78.3,496.9,205.7,369.5,362.9,369.5 M362.9,367.7c158.1,0,286.4,128.2,286.4,286.4c0,158.2-128.2,286.4-286.4,286.4
						c-158.2,0-286.4-128.2-286.4-286.4C76.5,495.9,204.7,367.7,362.9,367.7"/>
				</g>
				<g>
					<defs>
						<path id="SVGID_13_" d="M27.9,654.1c0,183.7,150.1,332.6,335.3,332.6c185.2,0,335.3-148.9,335.3-332.6
							c0-183.7-150.1-332.6-335.3-332.6C178,321.5,27.9,470.4,27.9,654.1"/>
					</defs>
					<clipPath id="SVGID_14_">
						<use xlink:href="#SVGID_13_"  style="overflow:visible;"/>
					</clipPath>
					<path class="st7" d="M362.9,364.9c159.7,0,289.2,129.5,289.2,289.2c0,159.7-129.5,289.2-289.2,289.2
						c-159.7,0-289.2-129.5-289.2-289.2C73.7,494.4,203.2,364.9,362.9,364.9 M362.9,363.1c160.7,0,291,130.3,291,291
						c0,160.7-130.3,291-291,291s-291-130.3-291-291C71.9,493.4,202.2,363.1,362.9,363.1"/>
				</g>
				<g>
					<defs>
						<path id="SVGID_15_" d="M27.9,654.1c0,183.7,150.1,332.6,335.3,332.6c185.2,0,335.3-148.9,335.3-332.6
							c0-183.7-150.1-332.6-335.3-332.6C178,321.5,27.9,470.4,27.9,654.1"/>
					</defs>
					<clipPath id="SVGID_16_">
						<use xlink:href="#SVGID_15_"  style="overflow:visible;"/>
					</clipPath>
					<path class="st8" d="M362.9,374c154.7,0,280,125.4,280,280s-125.4,280-280,280s-280-125.4-280-280
						C82.9,499.4,208.2,374,362.9,374 M362.9,372.3c155.6,0,281.8,126.2,281.8,281.8c0,155.6-126.2,281.8-281.8,281.8
						c-155.6,0-281.8-126.2-281.8-281.8C81.1,498.5,207.3,372.3,362.9,372.3"/>
				</g>
				<g>
					<defs>
						<path id="SVGID_17_" d="M27.9,654.1c0,183.7,150.1,332.6,335.3,332.6c185.2,0,335.3-148.9,335.3-332.6
							c0-183.7-150.1-332.6-335.3-332.6C178,321.5,27.9,470.4,27.9,654.1"/>
					</defs>
					<clipPath id="SVGID_18_">
						<use xlink:href="#SVGID_17_"  style="overflow:visible;"/>
					</clipPath>
					<path class="st9" d="M362.8,382c150.3,0,272.1,121.8,272.1,272.1c0,150.3-121.8,272.1-272.1,272.1S90.8,804.3,90.8,654.1
						S212.6,382,362.8,382 M362.8,380.3c151.2,0,273.8,122.6,273.8,273.8c0,151.2-122.6,273.8-273.8,273.8
						C211.6,927.9,89,805.3,89,654.1C89,502.9,211.6,380.3,362.8,380.3"/>
				</g>
				<g>
					<defs>
						<path id="SVGID_19_" d="M27.9,654.1c0,183.7,150.1,332.6,335.3,332.6c185.2,0,335.3-148.9,335.3-332.6
							c0-183.7-150.1-332.6-335.3-332.6C178,321.5,27.9,470.4,27.9,654.1"/>
					</defs>
					<clipPath id="SVGID_20_">
						<use xlink:href="#SVGID_19_"  style="overflow:visible;"/>
					</clipPath>
					<path class="st10" d="M362.9,377.9c152.5,0,276.2,123.6,276.2,276.2c0,152.5-123.6,276.2-276.2,276.2S86.7,806.6,86.7,654.1
						C86.7,501.6,210.4,377.9,362.9,377.9 M362.9,376.2c153.5,0,277.9,124.4,277.9,277.9c0,153.5-124.4,277.9-277.9,277.9
						S85,807.6,85,654.1C85,500.6,209.4,376.2,362.9,376.2"/>
				</g>
				<g>
					<defs>
						<path id="SVGID_21_" d="M27.9,654.1c0,183.7,150.1,332.6,335.3,332.6c185.2,0,335.3-148.9,335.3-332.6
							c0-183.7-150.1-332.6-335.3-332.6C178,321.5,27.9,470.4,27.9,654.1"/>
					</defs>
					<clipPath id="SVGID_22_">
						<use xlink:href="#SVGID_21_"  style="overflow:visible;"/>
					</clipPath>
					<path class="st11" d="M362.8,386.4c147.9,0,267.7,119.9,267.7,267.7S510.7,921.8,362.8,921.8S95.1,801.9,95.1,654.1
						C95.1,506.2,215,386.4,362.8,386.4 M362.8,384.7c148.8,0,269.4,120.6,269.4,269.4S511.6,923.5,362.8,923.5
						S93.4,802.9,93.4,654.1S214,384.7,362.8,384.7"/>
				</g>
				<g>
					<defs>
						<path id="SVGID_23_" d="M27.9,654.1c0,183.7,150.1,332.6,335.3,332.6c185.2,0,335.3-148.9,335.3-332.6
							c0-183.7-150.1-332.6-335.3-332.6C178,321.5,27.9,470.4,27.9,654.1"/>
					</defs>
					<clipPath id="SVGID_24_">
						<use xlink:href="#SVGID_23_"  style="overflow:visible;"/>
					</clipPath>
					<path class="st12" d="M362.8,395.6c-142.8,0-258.5,115.7-258.5,258.5c0,142.8,115.8,258.5,258.5,258.5s258.5-115.7,258.5-258.5
						C621.3,511.3,505.6,395.6,362.8,395.6z M361.6,909.1c-140.9,0-255.2-114.3-255.2-255.2c0-141,114.3-255.2,255.2-255.2
						c141,0,255.2,114.3,255.2,255.2C616.8,794.9,502.6,909.1,361.6,909.1z"/>
				</g>
				<g>
					<defs>
						<path id="SVGID_25_" d="M27.9,654.1c0,183.7,150.1,332.6,335.3,332.6c185.2,0,335.3-148.9,335.3-332.6
							c0-183.7-150.1-332.6-335.3-332.6C178,321.5,27.9,470.4,27.9,654.1"/>
					</defs>
					<clipPath id="SVGID_26_">
						<use xlink:href="#SVGID_25_"  style="overflow:visible;"/>
					</clipPath>
					<path class="st13" d="M361.6,401.6c139.3,0,252.3,113,252.3,252.3S501,906.2,361.6,906.2s-252.3-113-252.3-252.3
						S222.3,401.6,361.6,401.6 M361.6,394c143.5,0,259.9,116.4,259.9,259.9S505.2,913.8,361.6,913.8
						c-143.5,0-259.9-116.4-259.9-259.9C101.7,510.4,218.1,394,361.6,394"/>
				</g>
				<g>
					<defs>
						<path id="SVGID_27_" d="M27.9,654.1c0,183.7,150.1,332.6,335.3,332.6c185.2,0,335.3-148.9,335.3-332.6
							c0-183.7-150.1-332.6-335.3-332.6C178,321.5,27.9,470.4,27.9,654.1"/>
					</defs>
					<clipPath id="SVGID_28_">
						<use xlink:href="#SVGID_27_"  style="overflow:visible;"/>
					</clipPath>
					<g class="st14">
						<line class="st15" x1="362.8" y1="394" x2="365" y2="533.8"/>
						<line class="st16" x1="365" y1="533.8" x2="365" y2="846.4"/>
						<line class="st15" x1="365" y1="846.4" x2="365" y2="914.8"/>
						<line class="st16" x1="483.4" y1="647.2" x2="246.6" y2="647.2"/>
						<line class="st15" x1="101.8" y1="647.3" x2="246.6" y2="647.2"/>
						<line class="st15" x1="483.4" y1="647.2" x2="621.3" y2="647.3"/>
						<line class="st16" x1="347.6" y1="675.6" x2="382.4" y2="675.6"/>
						<line class="st16" x1="372.6" y1="660" x2="357.5" y2="660"/>
						<line class="st16" x1="347.6" y1="704.1" x2="382.4" y2="704.1"/>
						<line class="st16" x1="372.6" y1="688.5" x2="357.5" y2="688.5"/>
						<line class="st16" x1="347.6" y1="732.5" x2="382.4" y2="732.5"/>
						<line class="st16" x1="372.6" y1="716.9" x2="357.5" y2="716.9"/>
						<line class="st16" x1="347.6" y1="761" x2="382.4" y2="761"/>
						<line class="st16" x1="372.6" y1="745.4" x2="357.5" y2="745.4"/>
						<line class="st16" x1="347.6" y1="789.5" x2="382.4" y2="789.5"/>
						<line class="st16" x1="372.6" y1="773.8" x2="357.5" y2="773.8"/>
						<line class="st16" x1="347.6" y1="817.9" x2="382.4" y2="817.9"/>
						<line class="st16" x1="372.6" y1="802.3" x2="357.5" y2="802.3"/>
						<line class="st16" x1="347.6" y1="846.4" x2="382.4" y2="846.4"/>
						<line class="st16" x1="372.6" y1="830.8" x2="357.5" y2="830.8"/>
						<line class="st16" x1="347.6" y1="619.2" x2="382.4" y2="619.2"/>
						<line class="st16" x1="372.6" y1="634.8" x2="357.5" y2="634.8"/>
						<line class="st16" x1="347.6" y1="590.7" x2="382.4" y2="590.7"/>
						<line class="st16" x1="372.6" y1="606.3" x2="357.5" y2="606.3"/>
						<line class="st16" x1="347.6" y1="562.2" x2="382.4" y2="562.2"/>
						<line class="st16" x1="372.6" y1="577.9" x2="357.5" y2="577.9"/>
						<line class="st16" x1="347.6" y1="533.8" x2="382.4" y2="533.8"/>
						<line class="st16" x1="372.6" y1="549.4" x2="357.5" y2="549.4"/>
						<line class="st16" x1="398" y1="629.8" x2="398" y2="664.6"/>
						<line class="st16" x1="382.4" y1="654.7" x2="382.4" y2="639.6"/>
						<line class="st16" x1="426.5" y1="629.8" x2="426.5" y2="664.6"/>
						<line class="st16" x1="410.9" y1="654.7" x2="410.9" y2="639.6"/>
						<line class="st16" x1="455" y1="629.8" x2="455" y2="664.6"/>
						<line class="st16" x1="439.4" y1="654.7" x2="439.4" y2="639.6"/>
						<line class="st16" x1="483.4" y1="629.8" x2="483.4" y2="664.6"/>
						<line class="st16" x1="467.8" y1="654.7" x2="467.8" y2="639.6"/>
						<line class="st16" x1="332" y1="664.6" x2="332" y2="629.8"/>
						<line class="st16" x1="347.6" y1="639.6" x2="347.6" y2="654.7"/>
						<line class="st16" x1="303.5" y1="664.6" x2="303.5" y2="629.8"/>
						<line class="st16" x1="319.1" y1="639.6" x2="319.1" y2="654.7"/>
						<line class="st16" x1="275.1" y1="664.6" x2="275.1" y2="629.8"/>
						<line class="st16" x1="290.7" y1="639.6" x2="290.7" y2="654.7"/>
						<line class="st16" x1="246.6" y1="664.6" x2="246.6" y2="629.8"/>
						<line class="st16" x1="262.2" y1="639.6" x2="262.2" y2="654.7"/>
					</g>
				</g>
			</g>
		</g>
	</g>
</g>
<g id="Layer_2_1_">
</g>
</svg>
